<?xml version="1.0" encoding="utf-8" ?><svg xmlns="http://www.w3.org/2000/svg" xmlns:xlink="http://www.w3.org/1999/xlink" width="1024" height="1024" viewBox="0 0 1024 1024"><defs><linearGradient id="gradient_0" gradientUnits="userSpaceOnUse" x1="513.52795" y1="1023.7657" x2="509.97202" y2="-0.26567554"><stop offset="0" stop-color="#55946E"/><stop offset="1" stop-color="#70AE82"/></linearGradient></defs><path fill="url(#gradient_0)" d="M0 0L1024 0L1024 1024L0 1024L0 0Z"/><path fill="#07394A" d="M66.4967 522.695L66.9682 368.443L66.9255 300.668C66.9667 285.487 66.6568 269.021 68.3872 254.048C73.8559 207.285 94.9391 163.734 128.227 130.438C156.491 102.454 190.265 81.7464 229.135 72.3857C258.657 65.2762 290.314 67.0834 320.801 67.0678L417.896 67.0047L745.017 67.0374C801.712 67.171 856.04 89.7896 896.079 129.931C930.019 164.45 949.195 204.725 955.193 252.74C956.868 266.147 956.884 278.699 956.948 292.167L957.026 336.016L957.082 439.99L957.429 676.747L957.411 752.487C957.388 754.899 957.356 756.649 957.072 759.077L957.074 759.703C957.047 770.931 954.784 783.779 952.198 794.767C943.117 833.347 923.788 866.001 895.778 893.985C863.914 925.82 823.113 947.444 778.446 954.572C765.617 956.62 753.33 956.494 740.434 956.503L405.043 956.478L314.903 956.504C287.022 956.511 257.993 958.114 230.888 952.06C192.278 943.365 156.955 923.822 129.076 895.731C97.8234 864.418 76.7952 825.279 69.4575 781.508C66.2878 762.599 66.5845 744.198 66.5429 725.093L66.4858 669.251L66.4967 522.695Z"/><defs><linearGradient id="gradient_1" gradientUnits="userSpaceOnUse" x1="509.25952" y1="530.13666" x2="518.38593" y2="63.325191"><stop offset="0" stop-color="#CAE7D5"/><stop offset="1" stop-color="#94D9E1"/></linearGradient></defs><path fill="url(#gradient_1)" d="M66.4967 522.695L66.9682 368.443L66.9255 300.668C66.9667 285.487 66.6568 269.021 68.3872 254.048C73.8559 207.285 94.9391 163.734 128.227 130.438C156.491 102.454 190.265 81.7464 229.135 72.3857C258.657 65.2762 290.314 67.0834 320.801 67.0678L417.896 67.0047L745.017 67.0374C801.712 67.171 856.04 89.7896 896.079 129.931C930.019 164.45 949.195 204.725 955.193 252.74C956.868 266.147 956.884 278.699 956.948 292.167L957.026 336.016L957.082 439.99L957.429 676.747L957.411 752.487C957.388 754.899 957.356 756.649 957.072 759.077C956.505 752.204 956.912 739.799 956.93 732.628L956.93 685.367L956.899 522.489C938.936 522.085 918.135 518.595 899.47 517.84C895.758 490.225 887.319 483.541 868.594 464.28C855.253 450.557 841.37 436.731 827.971 423.034C776.64 370.884 724.853 319.186 672.614 267.946L589.751 185.371C579.437 174.984 569.208 164.537 558.778 154.257C542.893 138.6 529.63 124.851 505.292 128.143C495.853 129.391 486.948 133.243 479.574 139.267C467.094 149.462 449.307 168.651 437.169 180.458C395.608 221.575 354.31 262.957 313.277 304.601L204.033 414.056C190.417 427.559 176.87 441.131 163.392 454.771C144.355 473.988 122.356 493.193 122.432 522.597C122.251 521.059 122.233 519.245 121.499 518.017C118.4 518.352 115.579 519.059 112.509 519.527C97.3905 521.831 81.5253 521.254 66.4967 522.695Z"/><path fill="#F8F9F8" d="M899.47 517.84C918.135 518.595 938.936 522.085 956.899 522.489L956.93 685.367L956.93 732.628C956.912 739.799 956.505 752.204 957.072 759.077L957.074 759.703C957.047 770.931 954.784 783.779 952.198 794.767C943.117 833.347 923.788 866.001 895.778 893.985C863.914 925.82 823.113 947.444 778.446 954.572C765.617 956.62 753.33 956.494 740.434 956.503L405.043 956.478L314.903 956.504C287.022 956.511 257.993 958.114 230.888 952.06C192.278 943.365 156.955 923.822 129.076 895.731C97.8234 864.418 76.7952 825.279 69.4575 781.508C66.2878 762.599 66.5845 744.198 66.5429 725.093L66.4858 669.251L66.4967 522.695C81.5253 521.254 97.3905 521.831 112.509 519.527C115.579 519.059 118.4 518.352 121.499 518.017C122.233 519.245 122.251 521.059 122.432 522.597C123.979 628.411 162.694 718.164 238.185 792.473C311.991 864.188 410.964 904.119 513.872 903.702C617.156 903.715 716.156 862.43 788.829 789.039C860.372 716.993 900.2 619.371 899.47 517.84Z"/><path fill="#8FE4F2" d="M444.393 633.592C505.133 634.045 565.817 637.367 626.243 643.547C653.113 646.409 679.808 650.722 706.533 654.164C704.171 664.917 699.539 675.041 692.945 683.858C691.148 677.101 687.724 673.151 681.563 669.752C670.665 663.74 656.35 660.267 644.249 657.114C662.424 667.833 683.695 672.707 677.234 699.408C674.837 701.951 667.24 710.67 665.179 711.753C656.361 716.386 646.274 720.873 637.193 725.057C611.069 737.023 584.666 748.372 558.007 759.094L514.008 777.172C509.521 778.966 498.073 784.22 494.044 784.934C483.461 786.807 466.8 785.989 455.963 786.018C438.094 786.206 420.225 786.293 402.355 786.278C371.004 786.115 338.834 785.522 307.611 788.087C297.895 788.886 276.771 790.492 267.491 793.105C278.41 794.831 292.74 795.138 304.072 795.435C318.016 795.719 331.956 796.158 345.891 796.752C367.248 797.692 388.442 799.336 409.766 800.355C417.445 800.722 427.155 801.386 434.723 801.346C383.398 820.65 354.287 825.452 299.706 830.18C294.477 826.867 279.831 817.605 276.171 813.044L275.926 812.546C270.342 811.291 243.083 785.388 237.932 780.085C232.576 774.498 227.384 768.755 222.363 762.864C248.316 757.477 274.521 753.51 300.261 747.086C302.874 746.434 305.535 745.808 308.078 744.92C276.714 744.939 245.158 749.351 214.101 752.163C209.788 747.333 205.146 742.036 201.408 736.749C215.492 734.474 233.762 733.102 248.224 731.503C272.343 728.756 296.446 725.873 320.531 722.854C353.185 718.908 464.989 707.124 483.227 680.725C485.302 677.721 485.917 674.375 485.234 670.796C482.727 657.672 462.522 645.102 451.822 638.256C449.357 636.685 446.88 635.13 444.393 633.592Z"/><path fill="#07394A" d="M275.926 812.546C280.011 810.811 288.429 810.496 293.106 809.954C321.299 806.688 343.941 807.945 371.93 811.986C343.738 815.443 304.613 813.491 276.171 813.044L275.926 812.546Z"/><path fill="#07394A" d="M420.101 767.71C458.254 759.947 516.895 747.133 539.973 713.203C541.663 710.718 544.15 706.518 545.699 703.768C543.697 720.802 539.563 734.905 525.34 746.196C502.216 764.553 450.392 769.825 421.434 768.933C421.163 768.614 420.442 768.013 420.101 767.71Z"/><path fill="#07394A" d="M480.681 648.108C492.527 649.138 508.652 654.657 517.974 662.012C523.93 666.245 531.282 674.33 532.008 681.728C533.677 698.745 510.948 707.474 497.422 711.189C483.63 714.977 467.539 717.331 452.88 718.633C447.593 719.106 443.287 719.541 437.951 719.436C456.58 712.266 513.622 705.731 515.668 679.382C516.649 666.745 490.693 653.509 480.681 648.108Z"/><path fill="#07394A" d="M563.141 651.585C577.111 650.621 612.299 661.461 626.754 666.264C645.945 672.639 667.344 686.394 652.5 709.194C650.155 712.034 649.142 712.953 646.36 715.376C646.384 710.654 646.494 705.953 644.534 701.534C632.227 673.772 587.981 662.622 563.141 651.585Z"/><path fill="#07394A" d="M488.593 728.735L488.8 729.147C463.019 745.332 354.635 749.541 321.925 746.964C321.084 746.828 321.475 747.009 320.794 746.335C323.044 745.034 332.815 743.846 335.809 743.415C354.576 740.69 373.436 738.648 392.352 737.292C410.831 736.007 429.889 735.447 448.246 733.89C461.761 732.736 475.222 731.017 488.593 728.735Z"/><path fill="#07394A" d="M587.615 678.365C588.704 678.689 589.002 678.79 589.964 679.475C608.782 692.868 625.04 714.316 598.744 731.043C589.912 736.661 580.561 738.96 570.117 740.413C563.464 741.027 560.604 741.006 553.947 740.256C584.892 730.527 611.041 712.26 587.615 678.365Z"/><path fill="#07394A" d="M414.907 759.27L415.246 759.641C410.188 761.81 399.322 764.01 393.71 765.258C374.809 769.462 355.83 773.19 336.409 773.478C314.847 773.797 293.123 774.642 271.545 774.01L271.188 773.695L271.539 773.16C276.826 771.671 284.593 770.863 290.133 770.001C311.219 766.724 331.878 766.133 353.062 764.874C373.535 763.656 394.457 761.236 414.907 759.27Z"/><path fill="#07394A" d="M522.523 648.916C527.302 649.169 538.478 653.129 542.925 655.17C557.948 662.066 585.22 676.375 566.098 695.057C561.786 698.308 560.258 698.969 555.164 700.45C566.367 676.03 539.434 660.066 522.523 648.916Z"/><path fill="#083C40" d="M412.483 768.833L420.101 767.71C420.442 768.013 421.163 768.614 421.434 768.933C417.989 769.101 415.935 769.044 412.483 768.833Z"/><path fill="#78C2CD" d="M183.249 487.217C194.533 477.069 321.453 367.525 323.724 366.826L325.103 368.028C328.263 370.532 338.705 378.693 342.605 381.747C345.68 384.154 344.433 385.708 344.55 389.693C345.007 405.205 350.629 417.14 360.652 428.449C347.864 433.448 341.475 438.129 331.768 447.865C338.796 466.573 362.445 475.807 381.277 473.012C372.064 483.238 363.018 491.822 350.943 498.584C374.989 496.861 393.67 492.325 401.794 466.955C407.725 467.074 422.084 467.381 426.949 469.84C431.516 472.148 439.916 482.069 444.622 486.194C457.006 497.08 470.968 506.028 486.032 512.731C502.358 519.85 518.079 523.499 535.369 527.399C541.396 528.759 551.457 530.728 557.099 532.531C580.182 536.535 614.899 546.734 637.172 554.597C633.998 556.294 630.402 557.815 627.047 559.146C617.818 562.807 608.648 567.063 599.392 570.609C595.648 572.151 591.923 573.737 588.216 575.367C582.709 577.799 577.214 580.26 571.732 582.749C558.294 588.964 545.956 592.827 533.051 598.375L532.095 598.732C514.735 605.732 497.105 612.04 479.245 617.642C471.861 619.908 461.391 623.162 453.869 623.849C445.874 624.571 437.815 623.704 430.157 621.296C406.779 593.837 399.58 608.749 372.966 592.503C367.972 589.455 354.313 575.312 349.413 570.384C339.816 560.73 332.761 555.074 321.517 547.393C313.127 542.171 304.598 538.928 295.104 536.333C286.404 534.565 277.021 535.232 268.668 531.92C262.344 529.413 256.599 524.849 250.888 521.104C243.543 516.906 235.62 513.812 227.375 511.921C219.023 510.089 206.389 511.111 199.555 505.397C194.37 501.062 187.977 492.646 183.249 487.217Z"/><path fill="#78C2CD" d="M183.249 487.217C194.533 477.069 321.453 367.525 323.724 366.826L325.103 368.028C324.445 370.292 324.547 372.052 324.494 374.404C324.672 405.227 319.643 433.973 319.06 463.337C318.533 489.889 321.66 520.075 321.517 547.393C313.127 542.171 304.598 538.928 295.104 536.333C286.404 534.565 277.021 535.232 268.668 531.92C262.344 529.413 256.599 524.849 250.888 521.104C243.543 516.906 235.62 513.812 227.375 511.921C219.023 510.089 206.389 511.111 199.555 505.397C194.37 501.062 187.977 492.646 183.249 487.217Z"/><path fill="#4995AD" d="M183.249 487.217C194.533 477.069 321.453 367.525 323.724 366.826L325.103 368.028C324.445 370.292 324.547 372.052 324.494 374.404C320.651 379.128 317.475 385.541 314.013 390.777C296.548 417.195 276.86 442.901 262.233 471.023C261.555 472.328 263.007 494.711 263.725 496.595C259.585 504.883 254.68 512.742 250.888 521.104C243.543 516.906 235.62 513.812 227.375 511.921C219.023 510.089 206.389 511.111 199.555 505.397C194.37 501.062 187.977 492.646 183.249 487.217Z"/><path fill="#458DA3" d="M324.494 374.404C324.672 405.227 319.643 433.973 319.06 463.337C318.533 489.889 321.66 520.075 321.517 547.393C313.127 542.171 304.598 538.928 295.104 536.333C298.01 534.911 318.265 468.595 317.933 461.035C317.079 441.644 315.969 420.276 315.85 400.52C301.403 431.3 280.017 466.067 263.725 496.595C263.007 494.711 261.555 472.328 262.233 471.023C276.86 442.901 296.548 417.195 314.013 390.777C317.475 385.541 320.651 379.128 324.494 374.404Z"/><path fill="#458DA3" d="M402.867 476.488C435.999 503.923 468.119 537.08 499.786 566.51C506.085 572.365 529.11 592.85 533.051 598.375L532.095 598.732C526.439 594.233 518.084 589.904 511.81 585.617C492.279 572.271 472.42 559.134 452.898 545.788C450.518 544.161 446.066 537.815 444.25 535.24C430.622 515.916 414.732 496.925 402.867 476.488Z"/><path fill="#4995AD" d="M557.099 532.531C580.182 536.535 614.899 546.734 637.172 554.597C633.998 556.294 630.402 557.815 627.047 559.146C617.818 562.807 608.648 567.063 599.392 570.609C591.512 562.46 584.027 556.1 575.466 548.827C571.111 545.128 560.105 536.445 557.099 532.531Z"/><path fill="#458DA3" d="M571.732 582.749C570.342 580.603 568.614 578.387 567.095 576.302C557.163 562.668 548.585 548.298 539.779 533.917C546.28 540.411 555.311 547.762 562.422 553.775C570.764 560.829 579.677 568.703 588.216 575.367C582.709 577.799 577.214 580.26 571.732 582.749Z"/><path fill="#7CC177" d="M344.656 843.796C394.805 833.151 442.442 818.98 489.901 799.443C503.896 793.682 517.849 787.793 531.808 781.946C564.635 768.294 597.385 754.457 630.057 740.437C660.741 727.309 690.626 714.207 721.926 702.283C750.049 691.538 778.667 682.134 807.683 674.105C825.397 669.236 844.232 664.884 862.158 660.486C858.279 669.832 853.792 680.779 848.843 689.653C824.815 694.891 800.559 701.53 776.967 708.473C774.295 709.26 758.883 714.292 757.438 715.285C762.874 714.855 775.683 711.675 781.859 710.586C801.738 706.894 821.724 703.801 841.79 701.312C840.114 704.429 838.26 708.091 836.364 711.011C824.475 713.917 810.411 715.736 799.067 718.965C768.286 727.725 723.233 734.639 696.037 751.229C737.309 740.482 786.842 728.849 828.69 723.203C825.39 728.376 821.904 733.578 817.946 738.276C796.251 744.482 774.598 750.831 752.988 757.322C745.273 759.626 739.463 760.519 731.563 763.257C748.805 760.779 764.86 758.122 782.046 754.92C789.412 753.547 802.395 750.84 809.504 750.191C806.31 754.19 801.736 760.178 798.157 763.649C786.651 766.944 775.112 770.124 763.543 773.188C753.67 775.707 692.139 789.975 687.422 793.136C717.484 791.352 755.642 786.054 784.433 777.741C781.17 781.479 777.473 786.924 773.109 789.384C751.438 801.596 691.779 812.42 664.927 817.404C652.826 819.65 640.61 822.312 628.363 823.58C654.064 827.186 726.803 817.598 752.345 809.121C713.098 834.888 690.513 832.78 647.422 841.924C668.749 843.197 685.14 843.865 706.177 840.744C673.685 856.76 636.157 865.964 600.69 872.729C591.905 874.405 583.014 874.782 574.897 876.211L574.164 875.211C595.032 868.874 618.589 858.529 633.877 842.724C603.404 856.602 576.125 865.406 542.798 870.3C524.478 872.99 508.671 873.638 490.826 875.499C514.776 867.712 543.559 859.229 561.243 840.259C522.422 858.747 464.242 868.421 421.173 868.553C416.294 869.318 409.517 869.005 404.606 868.675L412.097 867.67C445.09 858.699 475.647 856.686 504.425 834.107C461.225 849.255 429.368 851.804 384.676 854.356C391.676 851.972 408 848.446 415.851 846.502C445.128 839.251 481.568 827.801 507.214 811.652C491.805 815.744 476.117 821.078 460.216 825.287C423.717 835.078 386.405 841.541 348.74 844.596C346.745 844.403 346.559 844.383 344.656 843.796Z"/><path fill="#4CAE6E" d="M404.606 868.675L412.097 867.67C414.188 868.755 418.331 868.142 421.173 868.553C416.294 869.318 409.517 869.005 404.606 868.675Z"/><defs><linearGradient id="gradient_2" gradientUnits="userSpaceOnUse" x1="569.66144" y1="164.60454" x2="392.05029" y2="479.26871"><stop offset="0" stop-color="#FFE4A2"/><stop offset="1" stop-color="#FAF5DB"/></linearGradient></defs><path fill="url(#gradient_2)" d="M450.913 179.411C460.723 169.497 470.552 159.638 480.554 149.911C489.421 141.287 500.807 136.228 513.382 136.772C520.177 137.099 526.772 139.172 532.531 142.791C539.816 147.361 546.779 155.806 553.16 161.87C563.627 171.817 573.617 181.602 583.401 192.257C564.539 191.929 551.709 202.415 545.256 219.678C537.009 219.58 524.175 218.7 516.111 220.46C513.044 221.129 512.435 228.202 517.355 228.356C527.696 228.679 538.138 228.411 548.519 228.411L620.714 228.481C622.136 230.341 624.493 232.726 626.207 234.417C639.803 247.838 653.201 261.699 667.04 274.848C651.682 273.91 641.808 282.387 635.521 295.59C629.04 295.493 619.562 294.699 613.594 296.586C610.811 297.466 609.993 303.701 616.315 303.935C622.93 304.18 629.641 304.179 636.217 304.188C649.001 304.158 661.785 304.203 674.568 304.324C674.412 309.481 670.544 322.754 668.233 327.385L665.093 323.294C655.719 326.275 647.278 331.64 640.599 338.862C638.384 331.853 631.189 311.879 621.354 316.718C615.413 319.641 609.146 323.411 603.503 326.953C603.556 321.413 601.863 294.908 592.2 294.267C589.197 294.068 579.007 300.508 575.564 302.542C574.674 286.213 568.84 264.337 556.395 253.147C555.929 252.732 555.445 252.336 554.946 251.96C537.276 259.92 523.839 276.328 517.023 294.27C516.542 295.529 516.071 296.791 515.61 298.058C507.257 288.183 495.468 274.782 482.644 270.846C471.964 277.545 460.175 295.849 457.575 308.129C453.639 304.478 429.324 283.903 423.1 291.764C418.147 298.019 415.226 314.415 416.279 322.691C416.337 323.133 416.401 323.573 416.474 324.013C414.292 322.968 409.022 320.125 407.06 321.299C397.352 327.111 396.349 347.957 398.966 356.622C389.611 352.102 384.893 351.37 374.749 350.726C353.177 349.356 361.368 363.727 367.74 376.77C362.341 377.074 358.081 377.404 352.686 378.334C343.402 372.276 335.235 365.05 326.427 358.384C324.657 357.045 321.64 356.321 319.759 357.958C310.117 366.349 300.582 375.089 290.641 383.139C287.646 386.266 281.419 391.5 278.036 394.518C266.286 404.968 254.318 415.171 242.14 425.118C230.143 424.763 217.888 424.968 205.76 424.658C236.132 393.714 268.228 360.671 299.426 330.671C300.382 329.199 313.737 316.134 315.578 314.267L370.205 259.513C395.13 259.187 420.057 259.073 444.984 259.171C454.836 259.148 464.872 259.478 474.718 259.251C476.293 259.214 479.571 258.557 480.789 257.51C482.181 256.314 481.981 256.199 482.197 254.65C481.838 253.566 481.41 252.7 480.571 251.914C477.611 249.143 455.435 250.542 450.749 250.546C448.784 247.366 447.212 244.834 444.47 242.254C430.261 228.886 410.37 233.755 401.59 250.381C394.727 249.888 387.194 250.455 380.131 250.272C386.599 242.783 394.538 235.227 401.585 228.179C410.709 219.005 419.781 209.778 428.8 200.499C450.757 200.861 473.327 201.128 495.176 200.096C498.155 199.955 497.411 195.704 496.373 193.745C493.757 191.407 482.142 192.494 478.179 192.643C472.834 179.985 463.896 176.623 450.913 179.411Z"/><path fill="#F8F9F8" d="M299.426 330.671C299.32 331.176 299.214 331.682 299.108 332.187C291.142 340.828 282.255 348.618 274.232 357.221C272.985 370.831 246.15 394.069 252.686 400.595C264.089 400.367 265.286 390.368 273.04 395.152C273.39 396.211 273.304 395.712 273.367 396.634C277.858 393.431 281.26 390.664 285.16 386.844C286.308 385.72 289.385 383.008 290.509 382.508L290.641 383.139C287.646 386.266 281.419 391.5 278.036 394.518C266.286 404.968 254.318 415.171 242.14 425.118C230.143 424.763 217.888 424.968 205.76 424.658C236.132 393.714 268.228 360.671 299.426 330.671Z"/><path fill="#F8F9F8" d="M674.568 304.324L696.938 304.28C723.241 331.904 751.353 358.37 778.15 385.459L814.959 422.876C820.703 428.762 828.764 437.662 834.665 442.984C818.845 442.951 803.024 443.017 787.205 443.181C783.057 443.249 778.85 443.26 774.716 443.496C772.827 443.604 772.013 446.114 771.784 447.65C772.089 448.535 772.584 450.085 773.596 450.156C792.386 451.485 823.937 450.078 841.942 450.83L846.07 454.235C823.332 460.466 809.262 475.034 793.364 491.547C783.574 485.168 773.133 477.17 763.631 470.201L732.765 447.989C726.752 443.625 718.34 437.024 712.241 433.209C728.045 416.548 737.228 404.688 705.929 404.356C709.498 395.591 712.016 388.302 711.923 378.744C711.827 368.842 711.451 363.602 699.642 366.936C694.329 368.437 689.172 370.292 683.996 372.226C685.434 352.327 678.719 343.683 668.233 327.385C670.544 322.754 674.412 309.481 674.568 304.324Z"/><path fill="#116E6D" d="M155.185 476.26C174.885 484.243 180.304 500.556 196.043 512.51C203.926 518.498 216.563 517.898 226.024 519.994C233.45 521.639 238.663 523.737 245.357 527.531C255.166 533.089 261.877 540.154 269.99 547.511C282.691 559.026 297.713 573.211 313.06 580.785C300.325 567.598 288.788 555.467 275.461 542.824C322.628 542.758 338.462 575.814 371.173 600.999C376.772 605.31 390.7 608.298 397.931 609.615C411.767 612.294 415.977 615.882 423.925 627.017C408.479 627.095 401.814 628.12 387.104 632.365C377.798 623.122 373.528 617.194 360.995 610.713C344.216 602.036 328.999 600.093 310.986 605.62C297.738 594.308 280.532 578.089 261.903 580.327C258.456 580.335 251.734 581.7 248.54 580.894C231.284 576.539 225.567 574.883 207.804 578.176C203.143 572.863 198.157 564.781 193.944 558.876C178.074 536.631 162.561 512.357 136.42 501.706C141.058 492.143 147.419 483.517 155.185 476.26Z"/><path fill="#116E6D" d="M852.026 461.635C854.42 462.021 866.779 475.91 869.52 478.428C883.992 491.721 890.151 504.521 890.661 524.344C870.722 526.948 852.375 534.053 839.099 549.094C826.586 563.269 823.039 563.511 804.7 562.373C797.823 561.946 791.445 564.417 785.275 567.246C778.538 570.334 757.271 591.351 751.421 590.684C736.112 574.815 724.798 563.141 710.216 546.357C736.074 537.791 763.15 523.294 785.62 507.758C804.411 494.766 817.573 474.291 838.788 465.016C842.93 463.205 847.612 462.422 852.026 461.635Z"/><path fill="#137C6A" d="M291.128 654.954C289.166 654.241 272.269 646.579 271.894 645.85C273.626 641.412 279.962 636.698 283.383 633.525C311.681 607.28 347.381 605.469 374.97 633.773C378.703 637.603 382.209 642.206 386.222 645.905C404.508 639.848 419.357 633.524 438.381 643.529C447.043 648.085 464.288 660.703 468.397 669.787C473.244 680.501 452.706 685.145 446.284 688.074C445.473 688.439 442.625 689.059 441.692 689.148L440.183 689.449C438.763 690.626 432.525 691.725 430.499 691.978C430.076 691.806 429.386 691.562 429.025 691.335C427.822 692.542 428.51 692.183 426.957 692.57C425.072 693.85 413.606 696.778 411.407 697.027L408.763 696.471C407.366 698.582 405.655 698.628 403.255 699.006L401.634 699.37C391.781 701.634 381.839 703.483 371.832 704.914L370.483 704.236C368.431 705.509 366.727 706.133 364.282 705.984C363.576 706.323 363.984 706.247 363.037 706.021L362.617 703.844L362.47 705.788C360.939 707.744 358.987 707.725 356.337 708.282C353.16 697.814 348.649 688.809 340.513 681.185C338.732 679.515 336.224 678.216 334.629 676.713L334.145 676.249L332.667 675.639C330.274 674.202 324.42 671.844 323.472 670.044L324.497 668.907L323.596 668.635L322.089 669.256C320.945 670.035 321.418 669.846 320.026 669.985C313.307 668.886 308.109 669.834 301.517 671.131C300.369 666.428 297.706 661.165 294.32 657.67C292.989 656.295 293.267 657.05 292.789 655.4L291.128 654.954Z"/><path fill="#083C40" d="M428.383 662.691L428.702 661.932C429.235 660.633 428.924 660.885 429.199 660.058C430.436 656.343 432.867 651.775 434.461 648.069L435.24 647.872C437.454 652.989 430.737 652.082 434.792 657.054C435.062 658.983 435.058 662.034 436.214 662.992C438.427 663.342 437.425 663.487 439.359 662.799C443.067 658.343 438.202 652.595 441.799 651.786L442.692 652.646L443.101 651.722L442.534 651.679L443.055 652.267L440.932 654.264L441.532 654.824C442.376 654.732 443.221 654.652 444.068 654.583C443.581 655.52 443.547 655.59 442.93 656.486L443.345 657.129L444.063 657.158C444.958 657.201 445.636 657.269 446.518 657.37L446.799 657.982C444.246 659.2 444.307 657.449 442.609 658.966C441.76 662.628 444.571 667.19 446.111 670.893L448.127 666.154C448.378 667.687 447.838 669.804 447.666 671.393C446.791 679.51 445.676 682.168 441.692 689.148L440.183 689.449C438.763 690.626 432.525 691.725 430.499 691.978C430.076 691.806 429.386 691.562 429.025 691.335C427.822 692.542 428.51 692.183 426.957 692.57C426.982 686.768 429.856 677.834 425.394 673.03C424.198 671.742 423.571 671.424 424.187 669.836C425.368 670.21 424.9 670.315 425.788 669.983C424.986 666.428 424.643 664.471 424.262 660.852C419.771 666.168 421.582 664.746 420.111 670.475L419.463 670.691C418.277 668.608 419.869 663.311 421.77 662.138C424.37 660.533 424.347 659.013 426.163 656.781C426.552 658.545 426.117 660.355 425.842 662.17L428.383 662.691Z"/><path fill="#137C6A" d="M429.025 691.335C430.169 688.505 434.077 679.693 435.37 677.645C436.466 677.382 437.287 677.173 438.359 676.829L438.432 676.117C437.035 675.324 437.532 675.555 435.473 676.031C433.414 674.245 437.33 671.309 436.989 668.542C435.413 669.721 435.998 669.786 434.729 669.623C434.097 668.012 434.547 665.93 435.256 664.416C438.876 664.553 437.842 663.517 440.928 662.807L441.759 663.625C442.326 666.303 443.062 668.684 443.837 671.299C441.546 676.137 438.437 679.586 434.58 683.154L434.581 683.606C438.16 682.154 443.113 678.185 444.065 674.174C444.308 673.149 444.186 673.145 444.812 672.145L445.443 672.541C446.643 675.807 441.731 686.039 440.183 689.449C438.763 690.626 432.525 691.725 430.499 691.978C430.076 691.806 429.386 691.562 429.025 691.335Z"/><path fill="#137C6A" d="M429.938 662.61C429.436 660.465 429.489 657.116 432.137 656.675C434.66 658.436 434.915 659.945 433.499 662.462C432.156 663.319 431.822 663.114 430.208 663.012C430.611 663.32 432.224 664.15 432.803 664.466C435.019 669.071 431.037 666.252 429.698 671.255C432.444 671.516 432.021 670.654 433.558 671.956C434.285 677.162 431.48 682.682 429.422 687.365C429.803 674.475 426.669 672.506 425.842 662.17L428.383 662.691C428.943 662.689 429.422 662.742 429.938 662.61Z"/><path fill="#083C40" d="M353.095 660.049C353.34 653.493 353.653 646.939 354.083 640.392C354.109 639.989 355.295 638.858 355.64 638.568C356.343 637.978 356.996 637.261 357.058 636.283C357.126 632.918 355.411 631.049 357.809 627.786C358.293 627.127 358.461 627.296 359.312 627.241L359.555 627.699L358.582 627.192L358.805 627.122L359.626 628.142C358.984 629.509 359.198 629.054 357.991 630.162C357.611 631.661 357.599 631.551 358.09 633.014C359.197 633.331 359.305 633.334 360.46 633.411C362.562 637.784 353.792 643.331 356.162 648.385C359.416 649.005 356.939 647.24 359.908 648.276L359.461 647.821L359.918 648.278C358.915 649.237 358.737 649.243 357.479 649.888C351.738 660.067 359.648 667.603 352.533 680.126C352.889 682.118 353.122 682.259 354.378 683.941C355.614 683.582 355.014 683.53 356.178 684.112C356.527 685.808 355.651 688.27 355.191 690.044C355.194 690.055 355.724 691.756 355.715 691.681C356.136 695.152 360.736 700.528 361.158 702.917L360.561 703.423C355.434 701.419 340.087 666.146 334.235 660.362C333.749 661.724 333.863 663.266 333.812 664.789C333.442 663.036 332.608 660.238 333.322 658.727L334.565 658.333C336.787 659.456 340.596 667.358 342.492 670.02C344.577 657.461 342.427 647.999 341.692 635.503C341.652 634.826 343.91 633.857 344.582 633.759C348.791 635.999 346.858 639.882 344.461 642.606C344.479 644.45 344.261 647.271 345.095 648.762L345.588 649.077C350.777 652.45 351.052 654.478 353.095 660.049Z"/><path fill="#137C6A" d="M352.533 680.126C352.889 682.118 353.122 682.259 354.378 683.941C354.364 686.039 354.849 688.22 352.939 689.315L351.883 688.847C349.619 685.188 350.302 683.511 352.533 680.126Z"/><path fill="#137C6A" d="M346.096 675.98C343.739 671.001 345.28 666.807 345.233 661.512C345.202 657.991 345.178 654.471 345.172 650.949L345.624 650.595C347.536 651.784 348.583 653.531 349.486 655.516L350.95 658.759C357.278 663.027 353.873 668.325 352.228 674.81C351.734 678.191 350.823 680.046 349.072 682.991C348.19 680.902 347.045 677.969 346.096 675.98Z"/><path fill="#137C6A" d="M346.096 675.98C346.352 673.573 346.117 673.845 347.401 672.695C349.261 672.792 350.427 673.853 352.228 674.81C351.734 678.191 350.823 680.046 349.072 682.991C348.19 680.902 347.045 677.969 346.096 675.98Z"/><path fill="#137C6A" d="M343.481 634.551C345.337 635.221 345.225 635.313 345.935 637.021C345.833 639.032 345.648 639.168 344.598 640.971C342.023 640.088 342.807 636.545 343.481 634.551Z"/><path fill="#083C40" d="M378.082 640.874C379.168 642.761 380.292 645.188 381.278 647.171C380.899 653.458 378.544 658.17 380.45 664.373L381.117 663.748L381.613 664.509C381.047 666.214 380.689 666.818 380.973 668.605C382.628 669.736 383.193 669.234 385.161 668.551L386.565 668.861L386.534 669.431C384.377 670.417 383.328 670.657 381.004 671.279C380.292 673.021 378.107 677.851 378.081 679.381L379.797 679.083C379.705 682.722 374.303 683.032 376.216 690.987L376.81 691.184C377.221 689.636 377.189 688.853 377.249 687.282L377.84 689.83L378.385 690.09L379.447 688.751L379.905 689.126C380.081 688.195 372.044 704.556 371.832 704.914L370.483 704.236C368.431 705.509 366.727 706.133 364.282 705.984C363.576 706.323 363.984 706.247 363.037 706.021L362.617 703.844C362.963 702.43 363.333 700.931 363.508 699.473C363.732 697.614 362.653 693.124 363.675 691.736C364.24 692.792 363.869 692.361 364.752 693.058C366.249 689.745 365.694 687.335 365.315 683.762C360.756 681.174 360.057 680.185 357.075 676.081C358.89 676.306 360.843 680.552 363.696 680.362C364.613 678.417 364.092 674.767 363.948 672.486C366.328 675.829 366.829 682.575 367.843 686.925C370.382 688.386 371.414 688.777 374.102 689.787C374.519 683.689 371.179 667.754 375.868 664.531L377.513 664.049C378.446 664.663 378.179 664.36 378.795 665.249C378.664 663.654 378.745 661.627 377.765 660.518C377.078 660.875 376.455 661.279 375.831 661.737C375.808 658.875 379.463 657.69 378.401 654.39C376.915 654.743 376.222 654.846 374.744 655.033L374.307 654.479C375.892 653.698 376.938 653.103 378.451 652.187C379.964 649.968 378.47 644.04 378.082 640.874Z"/><path fill="#137C6A" d="M364.282 705.984C365.167 699.527 366.181 694.359 367.537 687.972C369.654 689.252 372.514 690.448 374.806 691.497C373.72 696.596 372.481 699.405 370.483 704.236C368.431 705.509 366.727 706.133 364.282 705.984Z"/><path fill="#137C6A" d="M375.868 664.531L377.513 664.049C378.446 664.663 378.179 664.36 378.795 665.249C379.494 669.718 377.78 675.992 376.896 680.614L376.169 680.908L375.433 680.002C374.385 675.578 375.878 664.562 375.868 664.531Z"/><path fill="#137C6A" d="M403.044 668.561C407.06 665.772 407.848 664.233 410.163 660.093C414.638 668.743 413.962 671.988 411.967 680.84C410.778 677.504 409.742 674.236 408.035 671.134L407.529 670.973C407.543 678.968 416.67 682.908 408.763 696.471C407.366 698.582 405.655 698.628 403.255 699.006L401.634 699.37C400.709 696.402 399.859 693.296 398.995 690.299L399.393 688.578C400.388 686.097 401.295 684.097 401.851 681.468L401.505 679.439L403.23 678.856C404.283 679.769 404.048 679.315 404.465 680.51C404.845 674.702 404.431 673.872 403.044 668.561Z"/><path fill="#083C40" d="M403.23 678.856C404.283 679.769 404.048 679.315 404.465 680.51C403.063 683.15 402.478 684.332 401.425 687.201C404.71 688.723 406.543 690.206 408.432 693.369L408.345 694.496L407.661 694.768C405.611 692.819 404.097 689.848 402.225 688.892L401.588 689.229C401.295 692.359 402.732 695.86 403.255 699.006L401.634 699.37C400.709 696.402 399.859 693.296 398.995 690.299L399.393 688.578C400.388 686.097 401.295 684.097 401.851 681.468L401.505 679.439L403.23 678.856Z"/><path fill="#137C6A" d="M322.085 645.131C323.563 647.212 328.529 654.682 329.677 656.014C332.538 660.722 331.457 668.781 332.667 675.639C330.274 674.202 324.42 671.844 323.472 670.044L324.497 668.907L323.596 668.635L322.089 669.256C319.373 664.391 319.242 658.608 318.575 652.989C319.976 650.179 320.908 648.038 322.085 645.131Z"/><path fill="#083C40" d="M323.596 668.635C324.976 664.693 323.019 661.077 324.211 658.242C325.033 662.488 326.18 664.986 324.497 668.907L323.596 668.635Z"/><path fill="#083C40" d="M311.961 630.427C314.158 633.019 315.185 636.371 315.87 636.972L317.915 637.844C320.868 638.966 321.09 639.432 321.555 642.489L321.69 643.349C321.715 643.54 321.741 643.731 321.766 643.922L322.085 645.131C320.908 648.038 319.976 650.179 318.575 652.989C319.242 658.608 319.373 664.391 322.089 669.256C320.945 670.035 321.418 669.846 320.026 669.985C316.363 663.046 319.356 662.265 316.862 655.784C316.567 655.018 315.375 655.309 314.076 653.988C314.8 653.193 315.489 652.806 315.409 652.083C314.898 647.511 308.571 642.611 305.244 639.513C304.029 646.864 304.306 649.785 305.227 657.269C306.884 659.715 307.204 660.092 309.458 661.997L310.969 662.353C312.518 663.643 314.815 665.776 315.668 667.566L315.287 667.933C311.852 667.018 304.685 661.175 303.314 657.966C303.207 655.749 303.566 655.586 302.517 654.053C301.779 647.802 302.575 645.195 303.817 638.949L305.304 638.339C308.712 639.637 311.867 643.49 314.51 646.237C314.37 645.212 311.997 631.219 311.946 631.088L311.961 630.427Z"/><path fill="#137C6A" d="M315.87 636.972L317.915 637.844C320.868 638.966 321.09 639.432 321.555 642.489L321.69 643.349C321.715 643.54 321.741 643.731 321.766 643.922C320.669 646.605 319.093 649.033 317.605 651.532C316.246 647.09 314.947 641.575 315.87 636.972Z"/><path fill="#083C40" d="M409.102 650.397C412.819 648.731 415.135 651.129 414.54 655.012C413.743 656.332 412.531 656.763 411.137 657.521C410.567 659.858 414.676 664.244 415.216 667.137C416.091 671.829 411.553 682.76 414.059 686.562C416.379 686.976 419.875 683.625 420.241 681.405C420.633 679.036 418.021 676.579 417.94 674.126C420.306 673.869 421.03 676.265 421.218 678.233C421.766 683.96 417.047 688.115 412.887 691.42L412.915 691.118C412.446 693.232 412.092 694.958 411.407 697.027L408.763 696.471C416.67 682.908 407.543 678.968 407.529 670.973L408.035 671.134C409.742 674.236 410.778 677.504 411.967 680.84C413.962 671.988 414.638 668.743 410.163 660.093C407.848 664.233 407.06 665.772 403.044 668.561C404.431 673.872 404.845 674.702 404.465 680.51C404.048 679.315 404.283 679.769 403.23 678.856C403.188 676.277 403.139 674.663 402.628 672.107C401.733 667.634 400.567 668.722 398.189 665.967L398.41 665.08C399.739 665.672 400.401 666.353 401.497 667.286C402.183 665.685 399.6 658.555 400.932 656.908C401.793 657.755 402.649 658.607 403.5 659.464C403.815 661.585 401.361 664.775 403.105 666.701C408.063 665.613 408.142 658.37 410.664 656.492C412.521 655.247 413.819 654.666 413.19 652.287C411.385 650.572 411.843 651.093 409.102 650.397Z"/><path fill="#07394A" d="M331.316 642.776C332.399 642.338 332.772 642.227 333.516 641.318L334.073 641.814C333.886 646.187 333.122 654.528 334.565 658.333L333.322 658.727C332.608 660.238 333.442 663.036 333.812 664.789C333.923 666.954 334.431 674.462 334.145 676.249L332.667 675.639C331.457 668.781 332.538 660.722 329.677 656.014L331.02 655.002L331.371 655.11L331.865 654.775C332.24 651.306 331.909 646.222 331.316 642.776Z"/><path fill="#083C40" d="M317.915 637.844L318.27 637.058C319.306 634.701 319.197 632.756 320.754 630.938L321.692 631.083C324.471 635.022 319.051 638.366 323.282 641.588L324.839 641.151C325.451 642.388 325.169 643.595 325.059 645.021C326.85 648.921 329.236 651.182 331.02 655.002L329.677 656.014C328.529 654.682 323.563 647.212 322.085 645.131L321.766 643.922C321.741 643.731 321.715 643.54 321.69 643.349L321.555 642.489C321.09 639.432 320.868 638.966 317.915 637.844Z"/><path fill="#083C40" d="M331.316 642.776C330.618 640.815 326.012 628.316 326.27 627.29L327.022 627.372L326.258 627.499C329.451 628.678 327.46 629.419 330.197 630.329C331.559 628.665 330.747 625.553 331.592 624.729C334.483 627.58 329.921 633.354 330.842 636.615C333.874 638.335 334.201 636.822 336.116 638.746C335.918 640.32 335.604 640.554 334.073 641.814L333.516 641.318C332.772 642.227 332.399 642.338 331.316 642.776Z"/><path fill="#083C40" d="M293.192 643.147C292.219 640.283 291.471 638.832 291.691 635.81L292.156 635.213C295.79 638.657 296.002 651.246 292.789 655.4L291.128 654.954C291.847 651.94 292.606 649.495 293.535 646.548C290.58 643.948 287.872 641.622 284.794 639.175C288.249 640.548 289.935 641.35 293.192 643.147Z"/><path fill="#137C6A" d="M382.233 663.564C383.421 661.848 382.92 661.992 384.5 661.538C386.579 663.144 385.975 665.8 385.312 668.024L385.161 668.551C383.193 669.234 382.628 669.736 380.973 668.605C380.689 666.818 381.047 666.214 381.613 664.509L382.001 664.319L382.233 663.564Z"/><path fill="#083C40" d="M396.681 676.055L395.205 675.57L393.782 676.416L392.95 675.927L392.942 675.229C395.203 674.788 395.773 675.093 397.115 673.776C396.878 670.887 395.788 671.497 396.326 669.211L397.033 669.093C399.517 673.647 396.398 674.29 401.314 678.809L401.505 679.439L401.851 681.468C399.728 679.485 398.499 678.385 396.681 676.055Z"/><path fill="#083C40" d="M303.817 638.949L303.421 638.487C300.676 635.25 297.657 630.069 302.039 626.598L302.411 627.011C301.016 635.546 300.058 630.805 305.304 638.339L303.817 638.949Z"/><path fill="#084941" d="M382.233 663.564C381.804 661.484 383.553 657.832 385.144 656.604L385.65 656.769C385.446 658.533 385.194 658.905 384.481 660.483C385.331 661.921 385.965 662.223 387.306 663.189C387.94 665.382 386.709 666.373 385.312 668.024C385.975 665.8 386.579 663.144 384.5 661.538C382.92 661.992 383.421 661.848 382.233 663.564Z"/><path fill="#083C40" d="M303.314 657.966C300.839 655.094 298.184 652.26 296.394 648.93C298.206 650.075 300.828 652.556 302.517 654.053C303.566 655.586 303.207 655.749 303.314 657.966Z"/><path fill="#083C40" d="M311.946 631.088C309.81 629.931 308.742 629.47 308.629 626.808C309.24 625.126 309.331 625.199 310.697 624.139C312.459 625.251 308.908 625.432 311.961 630.427L311.946 631.088Z"/><path fill="#083C40" d="M398.995 690.299C397.632 687.765 394.621 685.522 394.482 683.784L395.876 683.539L399.393 688.578L398.995 690.299Z"/><path fill="#084941" d="M309.458 661.997C309.363 660.384 308.936 657.824 309.752 656.663L309.786 656.126C310.723 658.66 310.386 659.958 310.969 662.353L309.458 661.997Z"/><path fill="#083C40" d="M363.633 651.909L362.132 649.388L362.483 648.587L363.389 648.631C364.043 650.124 363.73 649.873 364.783 650.951C369.01 647.228 363.35 640.656 366.025 636.858C367.95 636.53 367.147 636.308 368.579 637.266C367.418 640.008 367.713 636.873 365.994 639.482C366.845 641.511 366.593 640.889 368.565 642.404C368.004 645.319 367.469 648.238 366.959 651.162C368.08 650.733 369.994 644.916 372.419 643.52L373.131 644.361L372.889 644.991L370.639 645.616C370.258 647.195 370.59 648.531 370.809 650.157C370.867 650.447 371.378 652.97 371.378 652.97C369.776 656.024 367.143 662.692 365.202 665.15C363.784 667.37 361.417 669.867 358.637 668.476C357.535 666.119 358.013 663.738 359.951 661.979C359.609 663.849 358.725 666.515 360.055 667.924C365.365 667.162 363.322 656.351 363.633 651.909Z"/><defs><linearGradient id="gradient_3" gradientUnits="userSpaceOnUse" x1="369.76797" y1="657.37207" x2="366.19717" y2="654.21216"><stop offset="0" stop-color="#0A4D45"/><stop offset="1" stop-color="#18856D"/></linearGradient></defs><path fill="url(#gradient_3)" d="M370.809 650.157C370.867 650.447 371.378 652.97 371.378 652.97C369.776 656.024 367.143 662.692 365.202 665.15C364.638 655.045 363.12 656.315 370.809 650.157Z"/><path fill="#084941" d="M318.998 619.441C320.589 619.998 320.69 619.854 321.633 621.186C322.18 623.297 322.48 626.343 321.445 628.313L320.289 628.194C318.042 626.729 315.935 625.523 316.165 622.497C317.04 620.664 317.253 620.631 318.998 619.441Z"/><path fill="#137C6A" d="M318.44 620.125C322.018 621.063 322.392 624.221 319.472 625.839L319.301 626.099C316.857 624.542 317.36 622.324 318.44 620.125Z"/><path fill="#083C40" d="M422.934 643.192L423.757 643.907C423.626 647.262 423.384 656.27 423.886 659.218L423.448 659.363C422.296 658.451 422.047 657.347 421.366 655.879C421.411 651.947 422.042 647.036 422.934 643.192Z"/><path fill="#0F2832" d="M349.237 622.775L350.024 622.621C350.939 625.761 350.022 634.645 348.993 637.893L348.479 638.225L348.075 637.822C348.612 634.963 348.882 626.32 348.585 623.262L349.237 622.775Z"/><path fill="#084941" d="M456.427 671.795C457.872 675.569 455.566 677.41 455.194 679.967C456.979 679.841 456.265 678.394 458.703 677.616L458.241 678.671C457.885 679.665 457.534 680.439 457.102 681.402C455.488 682.233 456.332 682.071 454.465 681.818C453.278 679.787 455.894 674.913 456.427 671.795Z"/><path fill="#083C40" d="M454.547 665.35L455.116 665.636C452.692 669.415 452.466 674.775 449.95 676.665C450.384 675.549 451.735 672.147 451.273 671.078C450.07 668.296 452.472 667.228 454.547 665.35Z"/><path fill="#07394A" d="M282.565 642.274L283.105 642.115C284.723 644.788 283.712 645.211 286.983 648.048L286.553 649.718L285.555 649.444C283.857 647.687 281.451 644.805 282.565 642.274Z"/><path fill="#083C40" d="M403.194 644.889C404.27 646.587 402.28 650.923 402.898 653.098C403.164 654.038 403.113 653.794 403.019 654.795L401.418 654.751C400.859 652.69 402.374 647.004 403.194 644.889Z"/><path fill="#083C40" d="M335.883 645.537C338.969 647.011 339.463 648.165 341.148 651.207L340.562 651.583C339.036 650.577 336.712 647.219 335.883 645.537Z"/><path fill="#116E6D" d="M379.3 693.437L380.133 693.864L381.796 693.295C382.339 694.088 381.864 695.049 381.623 696.352C380.972 696.651 380.71 696.659 380.006 696.82C378.948 695.605 379.33 695.535 379.3 693.437Z"/><path fill="#084941" d="M395.054 658.308C396.309 659.844 396.071 661.434 396.315 663.717C395.804 663.414 395.54 663.094 395.095 662.676C394.985 661.013 394.997 659.977 395.054 658.308Z"/><path fill="#4995AD" d="M703.843 439.243C704.335 439.049 705.78 438.296 706.172 438.598C732.43 458.799 760.984 477.323 787.228 497.39C779.717 502.562 772.043 507.492 764.218 512.174C760.45 514.387 756.652 516.55 752.826 518.662C745.884 522.451 738.152 525.982 730.971 529.408C729.099 530.372 727.335 531.274 725.42 532.16C718.851 535.191 712.169 538.388 705.437 540.995C704.671 540.059 702.917 538.038 702.327 537.096C697.769 532.832 687.322 519.409 682.367 513.687C682.66 525.531 682.98 531.336 686.084 542.739C674.427 536.117 664.878 530.525 652.482 525.333C641.4 520.692 626.646 516.322 616.245 511.085C611.34 508.946 606.738 506.981 601.983 504.506C610.535 497.204 618.024 488.777 625.421 480.33C633.999 478.761 644.854 474.302 652.913 470.744C655.168 469.103 661.09 465.975 664.177 463.839C673.144 457.634 677.785 452.424 685.052 444.58C687.993 444.544 690.875 444.098 693.797 443.731C696.604 442.759 699.304 441.572 702.039 440.415L703.843 439.243Z"/><path fill="#78C2CD" d="M703.843 439.243C704.335 439.049 705.78 438.296 706.172 438.598C732.43 458.799 760.984 477.323 787.228 497.39C779.717 502.562 772.043 507.492 764.218 512.174C760.45 514.387 756.652 516.55 752.826 518.662C745.884 522.451 738.152 525.982 730.971 529.408C729.586 526.825 727.671 515.464 727.085 512.171C723.746 493.396 717.842 476.197 710.362 458.693C707.739 452.555 705.031 445.925 703.843 439.243Z"/><path fill="#4995AD" d="M741.659 486.488C748.055 494.512 759.562 504.591 764.218 512.174C760.45 514.387 756.652 516.55 752.826 518.662C752.224 516.167 749.883 510.187 748.955 507.553L741.659 486.488Z"/><path fill="#78C2CD" d="M702.039 440.415L703.843 439.243C705.031 445.925 707.739 452.555 710.362 458.693C717.842 476.197 723.746 493.396 727.085 512.171C727.671 515.464 729.586 526.825 730.971 529.408C729.099 530.372 727.335 531.274 725.42 532.16C718.851 535.191 712.169 538.388 705.437 540.995C704.671 540.059 702.917 538.038 702.327 537.096C702.437 533.534 699.574 524.376 698.644 520.268C690.896 486.066 684.668 478.97 693.797 443.731C696.604 442.759 699.304 441.572 702.039 440.415Z"/><path fill="#458DA3" d="M702.039 440.415L703.843 439.243C705.031 445.925 707.739 452.555 710.362 458.693C717.842 476.197 723.746 493.396 727.085 512.171C727.671 515.464 729.586 526.825 730.971 529.408C729.099 530.372 727.335 531.274 725.42 532.16C722.059 523.568 719.655 514.343 716.388 505.895C707.719 483.48 704.946 464.082 702.039 440.415Z"/><path fill="#78C2CD" d="M652.913 470.744L653.011 471.728C640.77 484.234 628.38 498.217 616.245 511.085C611.34 508.946 606.738 506.981 601.983 504.506C610.535 497.204 618.024 488.777 625.421 480.33C633.999 478.761 644.854 474.302 652.913 470.744Z"/><path fill="#116E6D" d="M886.838 535.192C888.159 534.937 888.184 535.013 889.54 535.209C890.9 537.345 887.911 563.849 887.416 568.863C870.637 569.574 843.921 580.268 831.914 592.34C825.525 598.765 819.648 606.454 812.973 612.955C806.071 619.678 798.443 624.309 791.21 630.364C805.687 625.8 819.809 617.909 829.603 606.266C845.283 587.626 862.666 582.282 885.877 576.886C884.507 590.375 881.341 603.325 877.818 616.378C875.78 624.257 872.515 633.168 869.804 640.832C844.018 647.179 822.074 646.937 795.995 644.549C788.549 634.927 780.95 625.423 773.202 616.041C768.276 610.143 762.529 603.859 757.879 597.869C762.918 595.364 767.519 592.678 772.061 589.307C779.622 583.697 785.226 577.291 794.258 573.996C806.566 569.505 818.137 575.996 829.932 570.01C835.041 567.417 839.23 562.897 843.096 558.723C855.359 545.48 868.656 537.336 886.838 535.192Z"/><path fill="#987348" d="M532.28 434.697C539.45 447.5 546.401 458.038 554.825 469.957C560.411 477.859 563.197 488.705 571.043 495.582C588.562 513.197 615.736 520.858 638.347 529.795C654.167 536.048 672.681 544.08 686.077 554.4C690.793 558.034 698.739 568.866 703.801 574.081C705.092 573.78 705.004 573.818 705.954 572.889C697.735 558.324 693.873 550.072 689.479 533.511C697.447 544.521 705.943 556.826 715.011 566.884C723.884 576.725 732.599 587.072 741.298 596.91C762.011 620.333 773.494 639.861 774.1 672.204C769.161 673.865 761.883 676.085 757.232 677.982C763.445 662.428 762.781 646.535 756.121 631.208C750.663 618.649 740.112 602.711 729.733 593.734C742.331 611.886 757.819 636.071 753.794 659.35C752.33 667.82 747.7 675.751 743.111 682.852C738.084 684.306 733 686.08 728.027 687.742C738.393 672.258 742.423 654.144 738.802 635.754C735.416 618.136 726.26 602.147 712.779 590.311C726.011 609.96 734.366 634.314 729.913 658.27C728.004 668.542 718.899 687.985 709.925 694.031C708.169 695.214 703.129 696.884 700.712 697.776C737.356 655.117 727.224 606.739 686.042 570.239C653.628 541.509 601.309 532.84 560.857 521.389C515.607 510.865 476.512 508.766 443.004 471.594C469.965 487.155 496.622 501.682 527.507 507.66C548.809 511.783 565.528 514.002 586.069 521.577C597.722 525.874 616.197 531.087 628.372 533.709C592.646 516.995 570.031 518.07 551.157 477.674C545.611 465.803 539.852 456.24 534.992 442.8C534.009 440.126 533.105 437.424 532.28 434.697Z"/><path fill="#0F2832" d="M705.954 572.889C707.378 574.542 708.52 577.179 709.525 579.191C707.273 577.437 705.65 576.305 703.801 574.081C705.092 573.78 705.004 573.818 705.954 572.889Z"/><path fill="#116E6D" d="M645.437 559.488C647.09 559.566 650.249 560.996 651.812 561.732C667.053 568.911 680.235 579.94 691.169 592.653C675.8 597.142 661.241 602.314 646.111 607.207C626.356 613.595 614.582 618.169 597.35 630.117C593.727 629.971 589.914 629.681 586.3 629.329C570.779 627.816 555.141 627.283 539.62 626.102C530.74 625.735 522.078 625.243 513.166 625C505.61 624.794 496.695 624.721 489.276 623.888C514.398 613.353 540.343 604.243 565.625 593.599C575.821 589.386 585.977 585.077 596.092 580.672C612.779 573.238 628.278 565.892 645.437 559.488Z"/><path fill="#7CC177" d="M180.01 591.123C188.388 590.486 188.593 591.27 192.278 598.804C192.666 597.974 193.073 597.152 193.498 596.34C195.896 591.788 201.135 588.739 205.959 591.923C210.625 595.003 210.996 598.836 212.103 603.892C212.56 603.244 213.032 602.606 213.519 601.979C216.437 598.275 221.401 596.173 225.229 600.163C228.728 603.808 228.563 607.516 228.55 612.229C230.842 609.818 233.616 606.895 237.252 607.817C241.622 611.151 240.003 616.692 241.145 619.608C249.909 618.294 250.493 621.1 249.782 629.168C249.591 631.337 255.726 631.293 256.476 632.754C258.052 635.827 258.148 642.104 258.307 645.493C257.77 645.917 250.643 647.881 248.992 648.51C243.333 650.67 238.627 653.151 233.274 655.903C231.592 653.046 229.598 650.256 227.72 647.515C208.605 625.739 172.499 628.25 155.987 651.645C153.768 645.799 151.751 639.814 149.591 633.954C146.222 624.815 138.032 605.747 156.788 609.56C158.465 598.332 164.154 593.847 173.137 602.698C173.086 596.08 173.568 593.844 180.01 591.123Z"/><path fill="#07394A" d="M164.133 613.904C168.994 613.712 174.552 619.476 174.225 623.916C169.073 626.309 164.677 618.175 164.133 613.904Z"/><path fill="#083C40" d="M234.052 623.777C235.632 624.676 235.093 624.046 235.759 625.702C235.074 629.816 230.937 633.425 227.757 635.854L226.463 635.876L226.177 635.062C227.252 630.524 230.689 626.819 234.052 623.777Z"/><path fill="#083C40" d="M184.146 608.736C187.954 610.792 189.191 619.151 186.465 622.587C183.424 618.57 180.156 613.038 184.146 608.736Z"/><path fill="#083C40" d="M203.102 607.683C208.435 610.476 205.522 617.846 203.097 621.703L202.431 621.774C200.187 616.548 200.703 612.672 203.102 607.683Z"/><path fill="#083C40" d="M221.17 614.297C222.29 615.045 221.929 614.752 222.78 615.833C223.559 620.039 220.912 623.763 218.649 627.22C214.641 624.065 218.167 617.075 221.17 614.297Z"/><path fill="#083C40" d="M243.502 636.797C243.77 636.925 244.467 637.441 244.742 637.632C244.952 640.694 240.669 644.746 238.319 646.33L236.859 645.123C235.274 640.751 240.124 638.271 243.502 636.797Z"/><path fill="#07394A" d="M154.448 626.457C159.573 626.011 164.818 629.361 165.691 634.514C162.376 634.491 155.923 629.625 154.448 626.457Z"/><path fill="#033221" d="M174.982 623.223C177.869 624.538 178.582 625.309 179.184 628.406C175.585 627.435 175.145 626.722 174.982 623.223Z"/><path fill="#F8F9F8" d="M503.949 407.264C509.305 412.491 512.986 415.102 518.958 419.541C520.678 424.172 522.058 429.001 523.344 433.771C530.102 458.831 542.191 481.626 556.034 503.357C547.659 502.661 536.663 500.097 528.244 498.309C503.27 491.808 479.331 486.84 471.655 459.488C468.829 449.414 478.531 435.876 483.4 427.591C483.739 427.452 484.075 427.308 484.409 427.158C494.585 422.572 499.91 417.648 503.949 407.264Z"/><path fill="#F8F9F8" d="M593.207 407.878C594.094 408.862 594.632 411.94 595.16 413.535C597.884 422.012 603.395 429.318 610.798 434.265C618.14 428.523 622.246 421.321 626.177 413.087C628.852 416.541 631.794 419.616 634.328 423.175C634.79 426.796 635.056 430.439 635.126 434.089C635.561 449.867 633.28 455.835 623.377 468.083C618.943 473.485 614.306 478.718 609.477 483.77C603.355 490.076 598.619 494.568 591.832 500.124C589.753 498.71 587.694 497.267 585.654 495.796C571.406 485.406 561.257 468.439 563.462 450.437C564.903 438.674 571.464 433.358 579.092 425.095C584.258 419.499 588.726 413.989 593.207 407.878Z"/><path fill="#7CC177" d="M245.638 661.179C259.963 653.917 280.206 656.774 288.923 671.655C291.321 675.749 286.316 684.55 291.962 686.855C296.742 688.909 299.677 683.786 302.782 682.21C318.222 674.379 334.776 687.502 340.914 699.571C342.592 702.825 343.771 706.313 344.411 709.919C342.301 710.003 338.388 710.424 336.633 709.582C335.566 710.057 336.103 709.939 335.037 709.991C333.787 711.218 330.54 711.394 328.617 711.688L321.758 712.815C318.984 713.229 313.988 714.136 311.404 713.998L309.994 713.698C304.437 716.428 281.482 717.097 274.52 718.502C272.866 719.339 273.739 719.027 271.534 718.95C268.609 719.057 263.182 719.858 260.09 720.204C265.893 712.927 263.124 711.149 275.324 707.198L274.297 706.8L275.662 706.188L275.497 704.941C271.44 705.606 269.312 706.729 265.663 708.476C267.28 704.12 271.832 692.192 275.7 689.82L276.685 690.326L277.462 688.768C277.952 685.146 282.657 685.368 279.837 679.775C278.364 681.821 278.474 683.989 275.726 684.692C274.458 682.898 274.777 680.268 274.746 677.904L275.009 675.844L274.522 673.856C274.166 674.548 273.84 675.151 273.464 675.828C271.118 679.291 267.65 678.762 262.773 681.303C263.808 675.596 263.74 671.999 268.48 668.682L266.539 667.41C265.382 667.901 264.703 668.768 263.961 668.992C261.559 672.349 261.187 675.146 260.263 679.138C258.702 676.427 256.727 673.827 254.895 671.275C254.042 673.602 252.779 677.283 250.597 678.511C249.272 678.082 249.894 678.437 248.977 676.879C248.958 672.78 252.327 670.913 254.464 666.971L254.102 666.321C252.498 666.473 250.827 667.952 249.428 668.959C247.138 664.606 250.554 664.143 245.638 661.179Z"/><path fill="#083C40" d="M275.497 704.941C277.011 704.853 277.253 705.163 277.866 704.367C280.805 700.554 282.276 692.395 286.156 689.734L287.103 689.733C287.836 691.924 285.051 694.955 283.925 697.398C285.755 696.938 288.161 696.046 289.842 696.595C290.151 698.134 290.247 697.412 289.507 698.829C284.942 700.288 284.42 697.049 282.197 701.093C282.745 705.575 281.057 704.646 278.954 708.522C278.083 710.126 277.467 712.194 277.018 713.968C281.251 713.039 287.093 711.812 291.025 710.209L292.254 711.179C294.352 712.442 295.993 711.834 298.292 712.228C293.309 715.258 282.108 713.041 274.52 718.502C272.866 719.339 273.739 719.027 271.534 718.95C268.609 719.057 263.182 719.858 260.09 720.204C265.893 712.927 263.124 711.149 275.324 707.198L274.297 706.8L275.662 706.188L275.497 704.941Z"/><path fill="#7CC177" d="M275.324 707.198C273.187 711.78 274.676 713.319 271.534 718.95C268.609 719.057 263.182 719.858 260.09 720.204C265.893 712.927 263.124 711.149 275.324 707.198Z"/><path fill="#083C40" d="M313.598 701.439L313.779 700.717C315.131 695.234 314.063 688.289 318.179 685.612L319.319 685.481C319.787 686.359 319.889 687.273 319.409 688.188C317.012 692.765 316.506 696.082 315.576 700.96C317.387 700.729 318.644 700.348 320.284 701.063C318.576 703.401 314.596 701.864 312.756 707.502L312.853 704.411L312.506 704.082C310.032 704.256 306.277 704.294 304.522 706.023C304.749 708.09 306.409 708.409 308.228 709.258L300.727 710.026L300.19 708.658L300.478 706.891C300.328 707.104 303.232 696.673 303.792 695.115C304.533 693.303 305.239 690.995 306.604 689.697L307.514 689.822C310.086 693.256 304.804 698.485 303.585 703.318C306.29 702.841 311.115 702.127 313.598 701.439Z"/><path fill="#083C40" d="M291.025 710.209C292.985 706.876 294.093 704.83 293.794 701.234C293.659 699.625 297.526 697.496 299.16 692.173L299.385 691.42L300.037 691.179C301.25 692.519 300.907 692.414 301.37 694.45C298.482 697.523 296.046 701.624 295.313 705.806L295.669 706.776C297.775 707.055 298.328 707.015 300.478 706.891L300.19 708.658L300.727 710.026C299.528 710.879 298.968 711.036 298.292 712.228C295.993 711.834 294.352 712.442 292.254 711.179L291.025 710.209Z"/><path fill="#4CAE6E" d="M300.19 708.658L300.727 710.026C299.528 710.879 298.968 711.036 298.292 712.228C295.993 711.834 294.352 712.442 292.254 711.179C294.665 709.113 297.106 709.074 300.19 708.658Z"/><path fill="#083C40" d="M309.994 713.698C310.56 711.909 310.801 710.626 311.975 709.163L312.081 710.684C314.484 711.636 317.569 709.041 321.221 709.931L320.632 711.238L321.758 712.815C318.984 713.229 313.988 714.136 311.404 713.998L309.994 713.698Z"/><path fill="#4CAE6E" d="M311.404 713.998C313.149 713.038 318.595 711.607 320.632 711.238L321.758 712.815C318.984 713.229 313.988 714.136 311.404 713.998Z"/><path fill="#084941" d="M273.464 675.828C273.379 672.031 273.251 666.757 278.722 667.153L279.172 667.797C278.353 669.502 277.492 669.546 275.451 670.503L275.168 671.259L276.911 672.716C276.803 674.319 276.321 674.313 275.009 675.844L274.522 673.856C274.166 674.548 273.84 675.151 273.464 675.828Z"/><path fill="#083C40" d="M263.961 668.992L263.837 668.54C266.486 665.009 266.535 665.147 264.975 661.026C265.76 659.88 265.666 659.914 266.95 659.407L267.634 660.007C268.239 662.34 267.959 664.076 267.814 666.484C268.435 667.128 268.778 667.516 269.332 668.218L268.48 668.682L266.539 667.41C265.382 667.901 264.703 668.768 263.961 668.992Z"/><path fill="#4CAE6E" d="M274.746 677.904C276.058 678.429 278.655 679.785 279.837 679.775C278.364 681.821 278.474 683.989 275.726 684.692C274.458 682.898 274.777 680.268 274.746 677.904Z"/><path fill="#033221" d="M277.462 688.768C279.865 688.917 280.049 688.506 281.546 689.718L281.243 690.463C279.199 691.184 278.792 691.343 276.685 690.326L277.462 688.768Z"/><path fill="#033221" d="M335.037 709.991C335.25 708.294 336.221 706.357 337.965 705.908C338.189 707.326 337.384 708.264 336.633 709.582C335.566 710.057 336.103 709.939 335.037 709.991Z"/><path fill="#083C40" d="M257.213 661.239C258.881 662.631 260.73 663.405 261.83 664.795L261.666 665.402L259.306 666.008C258.217 666.936 258.126 666.842 256.715 667.243L256.033 666.649C255.796 664.481 256.444 663.324 257.213 661.239Z"/><path fill="#083C40" d="M326.873 691.312C328.128 691.842 327.685 691.408 328.233 692.667C327.491 694.653 325.884 695.918 324.338 697.459L323.208 697.345C321.877 694.656 324.745 692.419 326.873 691.312Z"/><path fill="#083C40" d="M285.077 675.687C286.894 676.061 286.157 675.651 287.444 676.811C287.278 678.769 287.106 678.414 285.801 680.292C284.469 680.054 284.498 680.153 283.576 679.192C283.708 677.179 283.814 677.63 285.077 675.687Z"/><path fill="#7CC177" d="M160.87 664.176C170.525 644.41 192.32 637.921 212.009 647.529C217.737 650.325 221.165 654.388 223.132 660.378C224.257 663.532 224.416 669.331 225.815 671.382C228.5 672.525 232.446 670.033 234.805 668.611C235.142 672.515 235.2 672.823 237.418 675.931C235.109 679.092 232.629 681.636 233.516 685.721C234.297 689.324 238.207 692.613 240.242 695.65C243.684 700.786 245.417 707.336 245.701 713.421C243.637 716.638 242.18 719.266 240.374 722.647C238.071 722.959 235.361 723.543 233.165 723.079L232.621 722.279L232.946 721.046L232.593 718.47C228.819 709.965 233.742 677.467 226.932 677.528C225.537 678.658 225.4 679.981 224.876 681.754L225.572 681.803L226.546 681.206C229.504 682.249 228.376 688.61 227.628 690.969L227.03 691.547C225.783 691.346 224.804 691.032 223.592 690.695C222.095 689.986 222.653 690.29 221.566 688.734C218.331 682.142 219.182 678.071 213.034 673.942L212.49 674.889C212.642 676.643 214.241 679.029 215.168 680.667C213.431 685.37 210.74 690.082 208.723 695.398C201.377 685.018 205.835 682.534 212.05 673.231C215.583 669.48 216.852 671.272 218.339 668.856L218.17 668.294C216.621 668.366 216.391 668.409 214.805 668.163C214.505 666.661 215.409 665.279 216.182 663.934L216.68 663.082C216.697 661.44 216.177 659.522 214.544 658.924L213.482 659.936C212.939 662.014 213.221 661.634 213.903 664.043C213.006 668.546 206.9 676.668 204.162 680.314C203.758 676.617 202.976 670.983 203.108 667.366C203.267 663.022 214.061 657.196 214.883 654.311C212.709 653.99 211.779 654.833 209.654 655.922C206.6 658.198 206.474 659.892 203.155 661.498C201.994 662.013 202.225 661.752 201.392 662.588C200.921 666.99 200.754 672.089 200.258 676.342C198.136 672.783 196.539 671.781 193.167 669.624L192.459 670.996L191.7 670.197C190.673 671.168 191.118 670.788 190.715 672.617C189.799 671.275 189.581 670.848 189.064 669.309C188.285 671.501 190.015 671.564 187.135 674.829L186.561 674.809L186.473 673.895C180.021 663.639 177.71 670.001 175.608 656.867L174.206 657.15L171.537 654.367L170.812 654.522C168.134 658.991 175.934 663.824 175.513 668.034C175.458 668.587 174.03 670.146 173.566 670.671C173.315 672.723 173.384 675.819 172.68 677.286C171.506 677.216 170.33 677.177 169.153 677.171L168.893 677.732C169.903 679.147 170.581 679.092 172.417 679.962L172.716 680.755C174.247 684.873 174.189 687.291 174.714 689.721C175.275 692.319 184.662 696.873 186.654 700.535C189.251 705.306 189.924 709.884 192.428 714.5C193.043 715.925 194.127 717.62 193.734 718.778L192.539 718.479L192.124 718.057C178.752 707.196 167.283 680.158 160.87 664.176Z"/><path fill="#083C40" d="M190.329 668.672C190.703 666.17 192.233 658.336 192.049 656.117C191.649 651.322 188.012 653.779 193.249 647.846L194.083 647.889C195.398 650.001 194.466 649.317 194.331 651.874C194.062 656.935 194.179 664.603 193.167 669.624L192.459 670.996L191.7 670.197C190.673 671.168 191.118 670.788 190.715 672.617C189.799 671.275 189.581 670.848 189.064 669.309C188.285 671.501 190.015 671.564 187.135 674.829L186.561 674.809L186.473 673.895C191.22 668.583 181.564 664.101 183.279 654.478L184.746 652.625L185.806 652.12C187.745 653.524 186.451 658.295 186.157 660.704C187.562 663.912 188.548 665.646 190.329 668.672Z"/><path fill="#084941" d="M201.392 662.588C200.943 661.688 199.53 656.939 199.49 655.944C199.346 652.371 202.751 646.993 206.652 646.977L207.209 647.731C205.166 649.582 201.97 651.111 202.123 653.916C203.346 655.35 203.021 654.917 205.022 655.658L205.131 656.548C203.742 657.136 204.211 656.962 202.634 657.08C202.68 658.916 202.824 659.673 203.155 661.498C201.994 662.013 202.225 661.752 201.392 662.588Z"/><path fill="#083C40" d="M232.593 718.47C234.237 713.555 235.755 709.109 236.188 703.948C236.216 703.613 236.647 703.226 236.88 702.987C241.52 704.547 234.681 718.292 232.946 721.046L232.593 718.47Z"/><path fill="#084941" d="M183.279 654.478C183.012 653.842 182.763 653.556 182.376 652.978C181.023 652.559 180.892 652.666 179.958 651.659C180.12 649.737 179.796 649.268 180.815 648.131C183.241 649.761 181.64 650.516 184.746 652.625L183.279 654.478Z"/><path fill="#137C6A" d="M224.876 681.754L225.572 681.803L223.774 686.448L223.331 686.267C223.131 684.873 224.214 683.13 224.876 681.754Z"/><path fill="#083C40" d="M164.472 670.409C165.876 670.927 167.111 672.008 168.359 672.929L168.214 673.947L167.751 674.232L166.63 673.891C165.118 672.394 165.213 672.444 164.472 670.409Z"/><path fill="#116E6D" d="M133.259 510.309C158.344 516.114 182.132 556.811 196.764 576.729L196.337 577.444C190.722 577.119 170.976 577.399 167.699 576.544C155.557 573.376 147.387 563.399 133.188 558.358C132.162 545.077 130.553 522.999 133.259 510.309Z"/><path fill="#116E6D" d="M694.454 601.14C695.783 600.946 695.272 600.938 696.597 601.33C704.421 609.317 706.798 632.405 706.879 643.116C704.38 642.978 701.633 642.553 699.137 642.18C676.696 638.827 654.089 636.635 631.613 633.608C624.286 633.032 615.972 631.991 608.613 631.218C623.959 621.735 676.46 604.578 694.454 601.14Z"/><path fill="#7CC177" d="M366.844 386.217C399.428 384.402 419.506 405.564 421.147 437.282C407.231 423.633 389.804 405.455 370.969 399.546C373.779 401.835 376.565 404.156 379.323 406.507C383.731 410.673 395.377 423.342 398.983 428.061C389.609 422.845 380.137 417.807 370.571 412.95C376.711 418.786 383.853 424.226 390.287 429.97C384.775 428.044 377.249 426.683 371.428 426.486C359.484 415.444 354.939 403.71 352.825 387.796C357.835 386.89 361.784 386.544 366.844 386.217Z"/><path fill="#7CC177" d="M553.297 262.857C564.81 277.897 567.434 294.46 564.226 312.634C556.874 318.333 549.854 321.135 543.508 328.743C545.73 316.52 547.461 303.558 547.387 291.14L546.776 293.223C545.604 293.005 545.975 293.167 545.045 292.495C541.015 306.727 537.524 321.824 533.481 335.59C528.465 326.931 529.034 320.85 527.987 310.931C526.833 314.963 526.671 326.116 525.711 327.606C521.828 321.64 522.917 307.216 524.627 300.457C528.471 285.257 539.933 270.844 553.297 262.857Z"/><path fill="#033221" d="M547.303 284.303C547.405 286.502 547.37 288.92 547.387 291.14L546.776 293.223C545.604 293.005 545.975 293.167 545.045 292.495L547.303 284.303Z"/><path fill="#7CC177" d="M484.095 280.759C498.994 289.753 509.029 302.653 513.796 319.428C508.177 321.902 506.287 325.624 504.13 331.196C503.993 331.553 503.86 331.911 503.732 332.271C498.89 320.956 492.772 307.172 484.547 297.886C488.759 310.137 492.12 322.664 494.606 335.377L488.156 339.776C486.012 329.974 484.759 325.294 479.866 316.448C481.74 326.016 482.354 333.434 482.216 343.217C478.19 347.641 473.188 352.819 470.964 358.452L470.224 358.146C473.723 351.274 475.37 341.096 472.408 334.057C466.053 318.96 464.239 312.608 471.916 297.134C474.909 290.958 479.041 285.403 484.095 280.759Z"/><path fill="#7CC177" d="M542.137 345.423C547.28 333.276 555.348 329.526 565.576 322.112C573.927 316.059 581.612 308.579 590.928 303.98C594.917 315.382 594.641 322.889 593.974 334.701C588.999 338.07 586.058 342.317 582.833 347.386C578.339 349.521 575.284 351.326 571.383 354.505C577.078 343.606 578.843 338.175 580.155 326.064C572.504 337.201 558.624 363.727 546.976 370.696C545.67 370.759 545.756 371.222 544.31 370.892C542.837 374.622 542.072 376.341 539.594 379.683C543.554 361.667 545.304 363.924 542.137 345.423Z"/><path fill="#033221" d="M544.31 370.892C548.03 357.194 556.481 346.827 566.992 337.506C560.208 347.145 549.382 358.783 546.976 370.696C545.67 370.759 545.756 371.222 544.31 370.892Z"/><path fill="#116E6D" d="M220.258 585.204C229.704 584.064 236.149 587.795 245.289 589.215C251.733 590.277 258.184 588.553 264.621 588.349C272.939 588.085 280.436 592.65 287.036 597.196C292.487 600.951 297.765 604.937 303.074 608.862C297.352 611.393 293.466 613.871 288.246 617.222C281.004 622.576 275.494 627.08 269.677 633.922C258.844 609.126 244.73 595.805 220.258 585.204Z"/><path fill="#7CC177" d="M593.849 382.007C593.215 380.971 592.617 379.914 592.057 378.836C578.065 352.253 604.163 336.091 624.178 325.685C633.722 335.743 633.381 347.592 628.229 359.647C623.835 369.931 618.148 375.186 607.887 379.373C611.345 371.012 615.164 362.925 616.335 353.931C615.323 352.361 616.361 352.776 615.336 350.999L613.733 351.418C609.372 358.781 599.974 375.048 596.943 382.245L596.646 382.192L596.822 381.058C595.667 379.975 595.796 378.324 594.208 375.915L593.849 382.007Z"/><path fill="#033221" d="M598.997 356.094C598.815 363.509 597.255 372.634 596.822 381.058C595.667 379.975 595.796 378.324 594.208 375.915C594.942 369.679 596.428 361.856 598.997 356.094Z"/><path fill="#033221" d="M613.733 351.418C614.775 348.405 616.713 345.104 618.432 342.416C617.654 346.24 616.955 350.079 616.335 353.931C615.323 352.361 616.361 352.776 615.336 350.999L613.733 351.418Z"/><path fill="#8FE4F2" d="M198.237 432.458C209.836 432.55 221.434 432.739 233.031 433.024L187.647 472.423C184.205 475.463 181.114 478.234 177.428 481C171.632 476.128 167.074 473.54 160.241 470.484C172.398 457.833 185.764 444.904 198.237 432.458Z"/><path fill="#7CC177" d="M428.725 299.032C435.896 301.806 441.98 305.323 447.35 310.969C456.574 320.665 469.052 337.468 463.282 351.603C462.075 354.539 459.694 359.281 457.122 360.896C456.474 359.976 456.738 360.474 456.831 358.975C455.98 358.801 455.145 358.342 454.33 357.971C453.358 362.595 452.843 364.209 451.188 368.623C448.86 349.989 443.286 336.415 436.332 319.384C436.719 330.738 438.197 344.763 439.825 356.051C427.331 335.16 420.45 323.425 428.725 299.032Z"/><path fill="#033221" d="M452.854 334.564C456.925 343.83 457.278 349.028 456.831 358.975C455.98 358.801 455.145 358.342 454.33 357.971C455.134 348.787 454.213 343.753 452.854 334.564Z"/><path fill="#F8F9F8" d="M425.83 413.822C433.232 415.474 437.751 415.181 445.275 415.071C459.765 434.588 457.158 453.87 467.883 474.869C464.984 474.13 460.159 471.38 457.495 469.887C446.138 463.521 436.741 457.6 430.34 445.825C430.802 434.065 429.288 424.904 425.83 413.822Z"/><path fill="#7CC177" d="M661.621 333.899C663.365 334.765 665.477 339.168 666.566 341.037C671.988 350.34 676.262 360.243 675.085 371.24C673.806 383.191 667.09 386.558 658.753 393.285C661.45 379.212 661.055 366.932 659.298 352.892L659.249 351.796L658.701 352.167C655.988 360.992 653.42 374.963 651.683 384.201C646.834 375.226 643.26 370.911 635.772 364.147C641.465 350.053 648.298 341.512 661.621 333.899Z"/><path fill="#7CC177" d="M369.294 436.135C388.559 433.886 396.746 444.638 409.207 456.844C389.697 450.958 382.993 447.668 362.03 449.169C366.567 450.354 371.071 451.665 375.536 453.101C381.454 454.8 387.548 457.139 393.361 459.24C384.096 462.715 376.403 465.14 366.34 463.558C357.461 462.163 348.512 457.264 343.217 449.907C350.482 443.031 359.399 437.859 369.294 436.135Z"/><path fill="#F8F9F8" d="M544.324 386.774C545.358 387.578 556.752 404.095 556.904 405.279C558.896 420.856 554.27 437.507 553.295 453.219L549.916 448.232C542.018 437.076 537.332 427.943 530.819 415.951C535.007 405.574 539.351 396.749 544.324 386.774Z"/><path fill="#7CC177" d="M409.982 330.274C418.608 334.846 420.83 342.258 425.891 350.134C431.285 358.53 434.966 367.058 438.9 376.196C430.989 368.576 425.082 360.344 417.846 352.357L421.23 359.279C425.915 368.062 431.84 372.852 436.55 380.93C429.279 376.111 426.161 375.394 417.87 372.769C407.033 361.411 402.497 344.682 409.982 330.274Z"/><path fill="#F8F9F8" d="M580.032 201.185C594.602 200.85 600.889 209.28 609.286 219.35L584.25 219.529L554.487 219.628C559.741 208.073 567.471 202.521 580.032 201.185Z"/><path fill="#7CC177" d="M478.586 382.881L477.587 384.195C476.228 382.459 476.002 373.281 476.341 370.757C478.086 357.767 487.306 347.053 498.7 341.04C507.884 356.414 498.406 374.733 483.85 382.559C482.847 383.098 483.01 383.168 481.832 383.367C480.499 383.395 479.894 383.162 478.586 382.881Z"/><path fill="#033221" d="M478.586 382.881C480.539 379.055 485.053 373.959 487.755 370.154C489.85 367.202 493.18 361.322 495.174 358.951C492.764 367.71 487.056 375.971 481.832 383.367C480.499 383.395 479.894 383.162 478.586 382.881Z"/><path fill="#7CC177" d="M509.118 366.862C513.746 371.879 520.645 376.248 523.864 381.322C528.186 388.135 526.65 401.14 524.503 408.683C523.568 405.033 522.575 401.399 521.523 397.781C520.343 397.905 520.427 397.944 519.506 398.723C520.347 402.493 520.975 406.667 521.628 410.506C511.152 403.012 504.422 395.071 499.33 383.345C502.743 377.942 506.006 372.445 509.118 366.862Z"/><path fill="#033221" d="M519.506 398.723C518.14 393.173 516.288 388.629 515.147 382.787C518.352 387.757 520.039 392.129 521.523 397.781C520.343 397.905 520.427 397.944 519.506 398.723Z"/><path fill="#7CC177" d="M701.953 375.124C703.284 374.961 702.806 374.963 704.134 375.249C704.761 376.606 704.327 379.202 704.03 380.748C700.658 398.323 690.457 406.069 677.047 415.68C678.753 409.633 681.559 404.854 684.789 399.492C686.447 396.764 687.986 393.95 689.547 391.163C684.795 395.689 681.629 400.12 677.797 405.368L677.742 404.913L677.638 404.157C677.07 399.792 676.047 396.087 674.975 391.841C684.103 382.238 688.809 377.95 701.953 375.124Z"/><path fill="#7CC177" d="M666.633 396.928C670.943 398.971 669.067 414.768 667.727 418.897C664.134 429.965 658.506 434.934 648.548 440.259C650.503 436.928 659.233 421.641 658.739 418.386C653.898 424.666 648.768 432.878 644.524 439.7C644.3 428.888 643.859 422.292 650.022 412.86C654.89 405.409 659.344 401.806 666.633 396.928Z"/><path fill="#7CC177" d="M513.556 326.161C521.984 329.376 530.198 341.935 533.334 350.025C535.088 354.55 536.737 365.484 534.711 369.884C534.236 369.492 525.73 348.957 524.357 346.173L521.862 340.75C522.456 351.34 523.934 358.926 525.788 369.331C510.593 359.152 505.615 343.009 513.556 326.161Z"/><path fill="#7CC177" d="M631.46 371.455C639.914 377.804 644.725 385.244 646.924 395.796C648.347 402.621 645.901 406.449 642.348 411.722C640.602 408.541 639.7 405.456 638.647 401.996L638.229 401.334C637.653 400.414 637.282 399.674 636.792 398.706C636.282 400.115 635.951 401.183 635.532 402.627C635.435 405.141 637.243 411.523 637.944 414.278C625.077 400.381 619.853 388.823 631.46 371.455Z"/><path fill="#033221" d="M634.843 385.777C636.165 391.038 637.71 396.688 638.647 401.996L638.229 401.334C637.653 400.414 637.282 399.674 636.792 398.706C636.282 400.115 635.951 401.183 635.532 402.627C634.618 398.445 634.771 390.257 634.843 385.777Z"/><path fill="#7CC177" d="M671.851 432.724C677.278 427.477 688.517 417.35 694.904 413.575C699.233 411.017 713.095 412.438 718.628 413.445C712.138 423.352 702.475 433.053 690.464 435.52C685.378 436.519 680.136 436.397 675.102 435.162C682.833 432.195 689.461 429.996 696.515 425.63L696.051 424.837C688.94 427.281 678.859 431.104 671.851 432.724Z"/><path fill="#2B5F2A" d="M696.051 424.837C697.716 423.774 700.073 421.99 701.908 421.763C701.088 423.205 698.081 424.765 696.515 425.63L696.051 424.837Z"/><path fill="#7CC177" d="M460.708 368.354C463.093 369.623 466.449 375.1 467.176 377.684C470.09 388.047 468.501 396.521 463.797 405.779C463.726 401.603 463.4 388.638 461.553 385.252C459.883 387.315 460.326 401.181 460.385 404.625C460.38 411.045 460.549 417.464 460.891 423.875C450.891 402.694 443.872 387.86 460.708 368.354Z"/><path fill="#7CC177" d="M193.167 669.624C196.539 671.781 198.136 672.783 200.258 676.342L200.156 677.28C202.607 680.294 199.213 689.411 207.575 697.396C202.774 709.154 204.285 711.632 201.62 723.268C196.063 714.454 194.111 708.775 189.586 700.934C190.069 698.697 190.495 696.041 191.453 694.015L192.185 693.907C192.704 693.341 193.719 692.474 194.322 691.923C192.921 688.78 199.189 686.168 196.679 683.284L195.341 683.286C193.514 684.177 191.635 688.397 190.486 690.481C189.224 683.164 188.476 679.82 190.715 672.617C191.118 670.788 190.673 671.168 191.7 670.197L192.459 670.996L193.167 669.624Z"/><path fill="#083C40" d="M194.322 691.923C196.26 696.155 200.487 704.245 200.072 708.59L199.78 709.028C197.427 708.406 193.773 696.982 192.185 693.907C192.704 693.341 193.719 692.474 194.322 691.923Z"/><path fill="#084941" d="M193.167 669.624C196.539 671.781 198.136 672.783 200.258 676.342L200.156 677.28L199.149 677.387C198.073 676.722 192.884 672.412 192.459 670.996L193.167 669.624Z"/><path fill="#7CC177" d="M617.496 384.59C617.918 386.044 617.503 389.486 617.621 391.418C617.961 397.006 618.741 400.03 620.516 405.231C618.491 413.727 616.669 418.604 611.04 425.095C610.488 421.045 609.015 403.813 608.407 401.703C606.087 408.917 606.499 414.417 606.836 421.824C599.241 410.377 598.922 401.178 604.462 388.704C607.994 387.292 613.718 385.739 617.496 384.59Z"/><path fill="#F8F9F8" d="M584.882 382.256C585.84 382.83 591.645 388.184 593.369 389.593C588.381 401.866 579.699 411.537 570.893 421.147L566.687 425.677C567.275 417.929 567.136 409.504 567.109 401.728C573.525 397.278 580.052 388.382 584.882 382.256Z"/><path fill="#7CC177" d="M369.596 359.64C371.428 359.462 373.265 359.351 375.105 359.31C387.488 359.117 396.805 364.88 405.352 373.435C406.633 374.718 407.304 375.433 407.288 377.051C405.801 377.479 405.921 377.195 404.004 376.181C400.144 374.139 389.875 370.07 385.897 369.695L385.886 370.101L388.234 371.631C396.688 377.171 398.386 379.177 404.547 387.355C395.38 381.643 388.927 379.557 378.506 377.25C375.254 371.628 371.702 365.776 369.596 359.64Z"/><path fill="#7CC177" d="M216.513 683.281C220.924 690.217 219.807 693.789 222.09 701.032C222.984 703.868 226.099 706.207 226.913 709.549C226.429 711.178 226.888 710.586 225.701 711.526C223.966 711.535 223.636 710.429 222.904 710.174C221.525 709.693 220.698 714.837 218.504 715.8L217.77 715.037C216.561 710.653 218.603 705.986 219.49 700.932C215.358 705.358 214.037 707.59 214.313 713.576C214.79 715.392 215.438 716.81 216.158 718.548C214.68 720.945 212.94 723.172 211.255 725.432C209.307 725.773 207.273 726.304 205.404 725.781C203.781 721.769 207.687 703.822 209.981 699.428C212.014 695.533 214.969 696.738 216.481 694.868L216.107 694.155C215.155 694.053 214.405 693.984 213.441 693.94L212.639 693.908C212.901 691.795 215.573 685.617 216.513 683.281Z"/><path fill="#7CC177" d="M414.241 381.109C431.002 382.869 436.953 391.44 442.633 406.294C435.311 402.307 431.877 395.828 425.022 390.415L424.678 390.757C425.171 392.564 435.827 404.935 437.946 407.445C432.12 406.655 425.672 407.001 421.063 401.617C417.597 397.567 412.932 388.091 412.592 382.463C412.556 381.86 413.477 381.566 414.241 381.109Z"/><path fill="#116E6D" d="M135.162 569.005C145.112 573.108 152.271 580.035 162.888 585.097C159.438 586.7 156.187 588.703 153.202 591.063C149.446 593.959 145.495 599.364 142.499 601.018L141.561 600.734C138.917 596.627 136.132 575.289 135.162 569.005Z"/><path fill="#F8F9F8" d="M664.662 438.873C668.946 441.009 670.637 442.206 675.396 444.131C663.438 451.708 659.811 456.873 645.205 463.992C642.254 465.437 639.086 466.54 636.004 467.695C640.05 460.741 641.656 457.352 643.889 449.667C651.97 447.661 658.403 444.286 664.662 438.873Z"/><path fill="#7CC177" d="M490.227 387.953C490.33 388.049 490.433 388.146 490.536 388.243C497.908 398.041 497.038 408.401 489.057 416.148C491.018 406.704 491.268 400.808 489.104 391.465C488.515 396.107 487.888 400.744 487.223 405.375C485.737 411.776 484.325 415.868 480.333 421.129C478.332 416.288 474.752 405.805 475.803 400.592C476.919 395.063 485.434 390.844 490.227 387.953Z"/><path fill="#F8F9F8" d="M662.802 283.644C674.126 282.95 679.181 287.746 686.057 295.603C680.476 295.658 674.895 295.683 669.313 295.68C661.301 295.649 653.288 295.681 645.276 295.777L645.554 295.242C649.509 287.484 654.356 284.921 662.802 283.644Z"/><path fill="#987348" d="M771.512 630.862C776.457 632.972 792.487 661.685 795.959 661.159C801.779 660.278 811.715 660.147 818.415 660.414L812.393 662.072C802.95 664.674 793.294 666.699 783.871 669.443C779.836 651.74 779.466 647.951 771.512 630.862Z"/><path fill="#7CC177" d="M580.925 357.991C581.482 361.381 579.516 368.831 580.648 374.8C576.078 381.337 572.966 385.778 567.259 391.49C568.694 386.918 574.108 374.607 574.504 372.367L573.976 372.181L572.365 373.779C568.697 379.244 565.931 387.516 564.109 393.774C560.754 369.555 563.798 372.095 580.925 357.991Z"/><path fill="#7CC177" d="M244.687 661.372L245.638 661.179C250.554 664.143 247.138 664.606 249.428 668.959L249.206 669.523C245.174 677.413 246.7 679.609 245.993 688.304C245.793 690.775 244.919 694.731 244.378 697.241C242.962 694.005 241.771 692.069 239.181 689.634C231.666 682.567 239.94 678.248 240.176 673.459C233.051 666.637 237.283 665.175 244.687 661.372Z"/><path fill="#083C40" d="M244.687 661.372L245.638 661.179C250.554 664.143 247.138 664.606 249.428 668.959L249.206 669.523C247.755 668.079 245.748 663.52 244.687 661.372Z"/><path fill="#7CC177" d="M255.916 676.374C257.689 677.234 258.991 680.017 260.012 681.774C258.083 685.224 256.906 687.139 255.691 690.867L257.145 696.279C255.017 700.909 252.577 704.156 249.626 708.259L249.094 708.781L248.394 708.767C244.268 696.467 248.663 694.682 250.481 682.608L250.627 681.605L255.916 676.374Z"/><path fill="#7CC177" d="M177.563 668.629C180.718 670.237 183.872 674.192 186.097 676.942C186.329 680.9 188.541 694.114 186.57 696.349C183.818 693.93 180.973 691.618 178.042 689.419C175.961 680.372 174.548 677.466 177.563 668.629Z"/><path fill="#7CC177" d="M261.38 684.853C262.083 685.546 262.286 686.233 262.566 687.139C265.17 695.57 264.764 702.685 260.611 710.481C258.647 714.168 254.484 714.696 250.611 715.562C248.888 715.9 249.409 716.147 248.27 715.578C250.809 710.538 256.436 705.193 258.406 699.452C260.772 692.558 258.455 692.035 261.38 684.853Z"/><path fill="#F8F9F8" d="M424.609 242.704C426.001 242.683 427.394 242.756 428.777 242.923C434.616 243.588 437.848 246.213 441.35 250.511L427.041 250.501L410.416 250.498C414.839 245.799 418.287 243.671 424.609 242.704Z"/><path fill="#7CC177" d="M226.106 712.809L227.203 713.064C229.264 715.18 229.939 720.819 230.463 723.784C226.848 724.112 223.228 724.39 219.605 724.619C218.244 724.791 217.691 724.791 216.311 724.779L215.775 724.16C216.101 721.186 223.557 714.539 226.106 712.809Z"/><path fill="#F8F9F8" d="M470.282 414.004C471.673 415.47 473.586 422.291 474.342 424.657C472.702 428.316 469.936 433.113 467.984 436.735L467.079 437.998C465.706 435.721 467.466 422.844 467.666 419.65C467.83 417.041 468.272 415.703 470.282 414.004Z"/><path fill="#7CC177" d="M272.312 678.402C273.448 679.949 273.436 685.443 273.556 687.627C269.914 691.09 269.481 693.287 266.581 697.1C265.575 692.548 264.636 687.981 263.764 683.401C266.927 681.698 269.337 680.397 272.312 678.402Z"/><path fill="#F8F9F8" d="M455.131 186.54C462.596 186.021 464.9 186.588 469.676 192.602C467.259 192.416 464.841 192.245 462.422 192.09L446.535 191.989C449.697 189.137 451.4 188.177 455.131 186.54Z"/><path fill="#7CC177" d="M390.045 471.281L391.004 471.82C390.721 477.344 379.323 485.568 374.716 487.982L374.042 487.778L375.988 485.964C380.986 481.392 385.455 473.995 390.045 471.281Z"/><path fill="#F8F9F8" d="M409.638 437.789C414.001 440.418 419.123 447.909 421.194 452.68C419.067 451.519 412.171 446.106 410.354 444.477C410.217 442.081 409.96 440.146 409.638 437.789Z"/><path fill="#083C40" d="M192.428 714.5C194.013 715.163 194.954 717.652 196.211 719.468C197.318 721.535 198.77 723.696 198.915 725.943L198.334 726.721C194.657 727.027 195.065 725.299 192.912 724.183L192.279 722.631C191.42 721.357 190.949 720.608 190.211 719.267L190.518 718.372L192.124 718.057L192.539 718.479L193.734 718.778C194.127 717.62 193.043 715.925 192.428 714.5Z"/><path fill="#4CAE6E" d="M192.912 724.183C194.316 723.845 194.486 723.981 195.393 722.933C195.527 721.407 195.585 720.928 196.211 719.468C197.318 721.535 198.77 723.696 198.915 725.943L198.334 726.721C194.657 727.027 195.065 725.299 192.912 724.183Z"/><path fill="#1D5967" d="M192.124 718.057L192.539 718.479C191.714 720.408 192.388 720.709 192.279 722.631C191.42 721.357 190.949 720.608 190.211 719.267L190.518 718.372L192.124 718.057Z"/><path fill="#4CAE6E" d="M223.592 690.695C224.804 691.032 225.783 691.346 227.03 691.547L226.346 692.188C228.631 696.07 228.02 701.873 228.017 706.441C224.54 701.191 221.824 697.212 223.592 690.695Z"/><path fill="#7CC177" d="M255.286 717.176L257.313 716.932C258.767 717.526 258.142 717.065 259.079 718.564L258.648 719.586C256.521 720.904 249.949 721.403 247.12 721.768C245.883 722.079 245.912 722.037 244.626 721.938C244.523 720.487 245.292 719.96 246.289 718.414C249.158 718.102 252.394 717.576 255.286 717.176Z"/><path fill="#F8F9F8" d="M554.804 375.847C555.222 377.631 555.62 385.625 554.684 387.239L553.767 386.325L550.951 381.05C552.284 378.912 553.191 377.799 554.804 375.847Z"/><path fill="#1D5967" d="M449.787 180.014C450.138 180.236 449.962 180.068 450.175 180.633C445.634 184.767 442.647 187.191 438.991 192.187C438.587 191.819 438.814 192.08 438.473 191.284C440.94 186.947 445.65 182.758 449.787 180.014Z"/><path fill="#7CC177" d="M470.224 358.146L470.964 358.452C470.65 359.585 470.314 360.713 469.956 361.833C469.488 363.257 469.148 364.163 467.794 364.842L468.466 364.236L467.654 363.689C467.85 360.824 468.387 360.481 470.224 358.146Z"/><path fill="#4CAE6E" d="M348.74 844.596C346.375 844.987 343.344 845.179 340.999 844.652C342.129 843.907 343.28 843.944 344.656 843.796C346.559 844.383 346.745 844.403 348.74 844.596Z"/><path fill="#116E6D" d="M574.897 876.211C573.068 876.493 570.945 877.036 569.234 876.529C570.401 875.594 572.576 875.462 574.164 875.211L574.897 876.211Z"/></svg>